<mxfile host="app.diagrams.net" modified="2022-08-28T05:25:23.107Z" agent="5.0 (Macintosh; Intel Mac OS X 10_15_7) AppleWebKit/537.36 (KHTML, like Gecko) Chrome/104.0.0.0 Safari/537.36" etag="A4fWhwXP-r5l7TNcY00L" version="20.2.5" type="github">
  <diagram id="9fnjXT7nlAm7Ix4f8WDv" name="Page-1">
    <mxGraphModel dx="1349" dy="997" grid="0" gridSize="10" guides="1" tooltips="1" connect="1" arrows="1" fold="1" page="1" pageScale="1" pageWidth="600" pageHeight="500" background="#EFF1F3" math="0" shadow="0">
      <root>
        <mxCell id="0" />
        <mxCell id="1" parent="0" />
        <mxCell id="-xf_uFu9KCXf6jcXoVjT-4" value="&lt;span style=&quot;font-size: 23px;&quot;&gt;[扩展用] 32位&amp;nbsp;&lt;/span&gt;&lt;span style=&quot;font-size: 23px;&quot;&gt;Payload&lt;/span&gt;&lt;span style=&quot;font-size: 23px;&quot;&gt;&amp;nbsp;长度&lt;/span&gt;" style="rounded=1;whiteSpace=wrap;html=1;fontSize=23;fillColor=#FFDA9A;" parent="1" vertex="1">
          <mxGeometry x="128" y="130" width="959" height="60" as="geometry" />
        </mxCell>
        <mxCell id="2w_STrQbnYMXy_1h6nJT-1" value="FIN" style="rounded=1;whiteSpace=wrap;html=1;fontSize=10;fillColor=#8ACBCA;" parent="1" vertex="1">
          <mxGeometry x="128" y="70" width="30" height="60" as="geometry" />
        </mxCell>
        <mxCell id="2w_STrQbnYMXy_1h6nJT-2" value="RSV&lt;br&gt;1" style="rounded=1;whiteSpace=wrap;html=1;fontSize=10;fillColor=#8ACBCA;" parent="1" vertex="1">
          <mxGeometry x="158" y="70" width="30" height="60" as="geometry" />
        </mxCell>
        <mxCell id="2w_STrQbnYMXy_1h6nJT-3" value="RSV&lt;br&gt;2" style="rounded=1;whiteSpace=wrap;html=1;fontSize=10;fillColor=#8ACBCA;" parent="1" vertex="1">
          <mxGeometry x="188" y="70" width="30" height="60" as="geometry" />
        </mxCell>
        <mxCell id="2w_STrQbnYMXy_1h6nJT-4" value="RSV&lt;br&gt;3" style="rounded=1;whiteSpace=wrap;html=1;fontSize=10;fillColor=#8ACBCA;" parent="1" vertex="1">
          <mxGeometry x="218" y="70" width="30" height="60" as="geometry" />
        </mxCell>
        <mxCell id="2w_STrQbnYMXy_1h6nJT-5" value="&lt;font style=&quot;font-size: 21px;&quot;&gt;4位 opcode&lt;/font&gt;" style="rounded=1;whiteSpace=wrap;html=1;fontSize=10;fillColor=#8ACBCA;" parent="1" vertex="1">
          <mxGeometry x="248" y="70" width="120" height="60" as="geometry" />
        </mxCell>
        <mxCell id="2w_STrQbnYMXy_1h6nJT-6" value="M&lt;br&gt;A&lt;br&gt;S&lt;br&gt;K" style="rounded=1;whiteSpace=wrap;html=1;fontSize=10;fillColor=#8ACBCA;" parent="1" vertex="1">
          <mxGeometry x="368" y="70" width="30" height="60" as="geometry" />
        </mxCell>
        <mxCell id="2w_STrQbnYMXy_1h6nJT-7" value="&lt;font style=&quot;font-size: 23px;&quot;&gt;7位 Payload 长度&lt;/font&gt;" style="rounded=1;whiteSpace=wrap;html=1;fontSize=10;fillColor=#8ACBCA;" parent="1" vertex="1">
          <mxGeometry x="398" y="70" width="210" height="60" as="geometry" />
        </mxCell>
        <mxCell id="2w_STrQbnYMXy_1h6nJT-8" value="&lt;font style=&quot;font-size: 23px;&quot;&gt;[扩展用]16位 Payload&amp;nbsp;长度&lt;/font&gt;" style="rounded=1;whiteSpace=wrap;html=1;fontSize=10;fillColor=#8ACBCA;" parent="1" vertex="1">
          <mxGeometry x="608" y="70" width="480" height="60" as="geometry" />
        </mxCell>
        <mxCell id="2w_STrQbnYMXy_1h6nJT-9" value="Mask-Key" style="rounded=1;whiteSpace=wrap;html=1;fontSize=23;fillColor=#8ACBCA;" parent="1" vertex="1">
          <mxGeometry x="607" y="190" width="480" height="60" as="geometry" />
        </mxCell>
        <mxCell id="2w_STrQbnYMXy_1h6nJT-10" value="&lt;span style=&quot;font-size: 23px;&quot;&gt;[扩展用]16位&amp;nbsp;&lt;/span&gt;&lt;span style=&quot;font-size: 23px;&quot;&gt;Payload&lt;/span&gt;&lt;span style=&quot;font-size: 23px;&quot;&gt;&amp;nbsp;长度&lt;/span&gt;" style="rounded=1;whiteSpace=wrap;html=1;fontSize=23;fillColor=#8ACBCA;" parent="1" vertex="1">
          <mxGeometry x="127" y="190" width="480" height="60" as="geometry" />
        </mxCell>
        <mxCell id="2w_STrQbnYMXy_1h6nJT-11" value="Payload 数据&amp;nbsp;..." style="rounded=1;whiteSpace=wrap;html=1;fontSize=23;fillColor=#FFDA9A;" parent="1" vertex="1">
          <mxGeometry x="607" y="250" width="480" height="60" as="geometry" />
        </mxCell>
        <mxCell id="2w_STrQbnYMXy_1h6nJT-12" value="Mask-Key" style="rounded=1;whiteSpace=wrap;html=1;fontSize=23;fillColor=#FFDA9A;" parent="1" vertex="1">
          <mxGeometry x="127" y="250" width="480" height="60" as="geometry" />
        </mxCell>
        <mxCell id="2w_STrQbnYMXy_1h6nJT-13" value="Payload 数据 ..." style="rounded=1;whiteSpace=wrap;html=1;fontSize=23;fillColor=#8ACBCA;" parent="1" vertex="1">
          <mxGeometry x="127" y="310" width="960" height="60" as="geometry" />
        </mxCell>
        <mxCell id="2w_STrQbnYMXy_1h6nJT-14" value="Payload 数据 ..." style="rounded=1;whiteSpace=wrap;html=1;fontSize=23;fillColor=#FFDA9A;" parent="1" vertex="1">
          <mxGeometry x="127.5" y="370" width="960" height="60" as="geometry" />
        </mxCell>
      </root>
    </mxGraphModel>
  </diagram>
</mxfile>
